<svg width="5065" height="1472" viewBox="0 0 5065 1472" fill="none" xmlns="http://www.w3.org/2000/svg">
<g clip-path="url(#clip0)">
<path d="M4366.07 868.834C4525.94 1028.75 4785.12 1028.75 4944.99 868.834L4655.53 579.272L4366.07 868.834Z" fill="#F6B057"/>
<path d="M4366.07 289.714C4206.21 449.635 4206.21 708.916 4366.07 868.837L4655.53 579.275L4366.07 289.714Z" fill="#A8BBC6"/>
<path d="M4655.69 579.123C4815.55 419.202 4815.55 159.921 4655.69 0L4366.23 289.561L4655.69 579.123Z" fill="#45525B"/>
<path d="M4945.14 868.532C5105.01 708.611 5105.01 449.33 4945.14 289.409L4655.68 578.971L4945.14 868.532Z" fill="#F47E20"/>
<path d="M0 687.308H179.486V1316.95H568.423V1463.33H0V687.308Z" fill="#45525B"/>
<path d="M1116.92 923.917C1166.35 967.891 1191.14 1034.23 1191.14 1122.94V1463.33H1029.46V1389.07C996.905 1444.46 936.366 1472.15 847.688 1472.15C801.904 1472.15 762.204 1464.39 728.589 1448.87C694.973 1433.35 669.267 1411.9 651.623 1384.51C633.826 1357.12 625.004 1326.08 625.004 1291.38C625.004 1236 645.842 1192.33 687.672 1160.53C729.349 1128.72 793.842 1112.9 880.999 1112.9H1018.35C1018.35 1075.16 1006.94 1046.25 983.976 1025.86C961.008 1005.47 926.783 995.432 880.847 995.432C849.057 995.432 817.875 1000.45 787.15 1010.34C756.424 1020.39 730.414 1033.78 708.967 1050.82L646.907 930.003C679.458 907.179 718.397 889.376 763.877 876.747C809.357 864.117 856.054 857.879 904.12 857.879C996.6 858.031 1067.48 879.942 1116.92 923.917ZM969.525 1335.21C992.341 1321.51 1008.62 1301.43 1018.35 1274.8V1213.78H899.709C828.827 1213.78 793.386 1237.06 793.386 1283.62C793.386 1305.84 802.056 1323.34 819.396 1336.27C836.736 1349.2 860.617 1355.6 890.886 1355.6C920.395 1355.75 946.709 1348.9 969.525 1335.21Z" fill="#45525B"/>
<path d="M1851.14 896.223C1896.62 921.786 1932.21 957.544 1958.07 1003.8C1983.93 1050.06 1996.85 1103.77 1996.85 1165.09C1996.85 1226.41 1983.93 1280.28 1958.07 1326.38C1932.21 1372.64 1896.62 1408.39 1851.14 1433.96C1805.66 1459.52 1755.31 1472.15 1699.94 1472.15C1617.96 1472.15 1555.44 1446.28 1512.7 1394.55V1463.32H1347.51V640.746H1520.3V930.003C1563.81 881.92 1623.74 858.031 1699.79 858.031C1755.16 858.031 1805.66 870.66 1851.14 896.223ZM1779.04 1285.3C1807.48 1255.32 1821.78 1215.3 1821.78 1165.09C1821.78 1114.88 1807.48 1074.71 1779.04 1044.88C1750.59 1014.91 1714.24 999.996 1669.82 999.996C1625.56 999.996 1589.06 1014.91 1560.61 1044.88C1532.17 1074.86 1518.02 1114.88 1518.02 1165.09C1518.02 1215.3 1532.17 1255.47 1560.61 1285.3C1589.06 1315.27 1625.41 1330.18 1669.82 1330.18C1714.24 1330.18 1750.59 1315.27 1779.04 1285.3Z" fill="#45525B"/>
<path d="M2692.75 1213.78H2241.75C2249.81 1250.76 2269.13 1279.97 2299.4 1301.43C2329.67 1322.88 2367.39 1333.53 2412.41 1333.53C2443.44 1333.53 2470.98 1328.97 2495.01 1319.69C2519.04 1310.4 2541.4 1295.8 2562.09 1275.86L2654.11 1375.68C2597.98 1440.04 2516 1472.15 2408.16 1472.15C2340.92 1472.15 2281.45 1459.06 2229.73 1432.74C2178.02 1406.57 2138.17 1370.05 2110.03 1323.49C2081.89 1276.93 2067.89 1224.13 2067.89 1164.94C2067.89 1106.51 2081.73 1053.86 2109.42 1007C2137.1 960.131 2175.13 923.46 2223.5 897.288C2271.87 871.117 2326.02 857.879 2385.8 857.879C2444.2 857.879 2496.99 870.508 2544.29 895.615C2591.6 920.721 2628.71 956.783 2655.63 1003.65C2682.56 1050.67 2696.09 1105.14 2696.09 1167.22C2695.94 1169.5 2694.88 1185.02 2692.75 1213.78ZM2288.14 1022.06C2261.52 1044.28 2245.25 1074.56 2239.32 1112.9H2533.03C2527.1 1075.16 2510.83 1045.04 2484.21 1022.52C2457.59 999.997 2425.04 988.737 2386.71 988.737C2347.62 988.737 2314.76 999.845 2288.14 1022.06Z" fill="#45525B"/>
<path d="M3352.58 924.522C3398.06 968.801 3420.73 1034.69 3420.73 1121.87V1463.32H3247.93V1148.35C3247.93 1101.03 3237.59 1065.73 3216.91 1042.45C3196.22 1019.17 3166.25 1007.45 3127.16 1007.45C3083.51 1007.45 3048.83 1020.99 3022.97 1047.92C2997.11 1074.86 2984.18 1115.03 2984.18 1168.13V1463.02H2811.39V866.853H2976.42V936.695C2999.24 911.588 3027.68 892.112 3061.76 878.57C3095.68 864.875 3133.09 858.028 3173.71 858.028C3247.48 858.028 3307.1 880.091 3352.58 924.522Z" fill="#45525B"/>
<path d="M4177.46 866.854V1463.17H4013.49V1392.26C3990.52 1418.13 3963.29 1437.91 3931.5 1451.61C3899.71 1465.3 3865.34 1472.15 3828.38 1472.15C3750.04 1472.15 3687.98 1449.63 3642.2 1404.59C3596.41 1359.55 3573.44 1292.6 3573.44 1203.89V866.854H3746.24V1178.33C3746.24 1274.34 3786.55 1322.42 3867.01 1322.42C3908.38 1322.42 3941.54 1308.88 3966.79 1281.95C3991.89 1255.02 4004.51 1214.84 4004.51 1161.74V866.854H4177.46Z" fill="#45525B"/>
<path d="M4917.46 1297.62H4384.78V1463.32H4917.46V1297.62Z" fill="#45525B"/>
</g>
<defs>
<clipPath id="clip0">
<rect width="5065" height="1472" fill="white"/>
</clipPath>
</defs>
</svg>
